<?xml version="1.0" encoding="UTF-8"?>
<svg width="512" height="512" viewBox="0 0 512 512" fill="none" xmlns="http://www.w3.org/2000/svg">
  <!-- Background circle -->
  <circle cx="256" cy="256" r="256" fill="#2196F3"/>

  <!-- Customer/People icon -->
  <g transform="translate(256, 256)">
    <!-- Main person -->
    <circle cx="0" cy="-60" r="40" fill="white"/>
    <path d="M -25 -20 Q 0 -10 25 -20 Q 20 0 0 0 Q -20 0 -25 -20" fill="white"/>

    <!-- Two smaller people around -->
    <!-- Left person -->
    <circle cx="-80" cy="-30" r="25" fill="white" opacity="0.8"/>
    <path d="M -95 -10 Q -80 0 -65 -10 Q -70 5 -80 5 Q -90 5 -95 -10" fill="white" opacity="0.8"/>

    <!-- Right person -->
    <circle cx="80" cy="-30" r="25" fill="white" opacity="0.8"/>
    <path d="M 65 -10 Q 80 0 95 -10 Q 90 5 80 5 Q 70 5 65 -10" fill="white" opacity="0.8"/>

    <!-- Connection lines -->
    <path d="M -40 -40 Q 0 -50 40 -40" stroke="white" stroke-width="3" fill="none" opacity="0.9"/>
    <path d="M -60 -25 Q 0 -35 60 -25" stroke="white" stroke-width="2" fill="none" opacity="0.7"/>
  </g>

  <!-- Management/Business element -->
  <rect x="200" y="400" width="112" height="20" rx="10" fill="white" opacity="0.9"/>
  <rect x="210" y="390" width="92" height="8" rx="4" fill="white" opacity="0.7"/>
</svg>
